# xmcd
#
# Track frame offsets:
#  151
#  12688
#  25459
#  37198
#  48166
#  59025
#  77329
#  91741
#  102808
#  118250
#  128885
#  142488
#  152485
#  163776
#  174776
#  192200
#
# Disc length: 2726 seconds
#
# Revision: 1
# Processed by: cddbd v1.5.1PL2 Copyright (c) Steve Scherf et al.
# Submitted via: Collectorz.com_Music_Collector 6.9
#
DISCID=d90aa410
DTITLE=John Lee Hooker - The Fimeless Collection CD1
DYEAR=2002
DGENRE=Blues
TTITLE0=CRAWLIN KING SNAKE BLUES
TTITLE1=HOBO BLUES
TTITLE2=I LOVE YOU HONEY
TTITLE3=NO SHOES
TTITLE4=GOIN TO CALIFORNIA
TTITLE5=HOUSE RENT BOOGIE
TTITLE6=THE HOBO
TTITLE7=BOOTLE UP AND GO
TTITLE8=TUPELO
TTITLE9=DUSTY ROAD
TTITLE10=EVERY NIGHT
TTITLE11=DIMPLES
TTITLE12=LET'S MAKE IT
TTITLE13=TENNESSEE BLUES
TTITLE14=BLUES BEFORE SUNRISE
TTITLE15=TROUBLE BLUES
EXTD=
EXTT0=
EXTT1=
EXTT2=
EXTT3=
EXTT4=
EXTT5=
EXTT6=
EXTT7=
EXTT8=
EXTT9=
EXTT10=
EXTT11=
EXTT12=
EXTT13=
EXTT14=
EXTT15=
PLAYORDER=
